<svg width="945" height="584" viewBox="0 0 945 584" fill="none" xmlns="http://www.w3.org/2000/svg">
<g clip-path="url(#clip0_113_2)">
<path d="M95.3846 535.136C99.3078 536.516 103.52 536.861 107.615 536.14C111.711 535.418 115.551 533.654 118.767 531.018C126.957 524.143 129.525 512.822 131.614 502.336L137.794 471.319L124.856 480.228C115.551 486.634 106.038 493.246 99.5959 502.525C93.154 511.805 90.3437 524.473 95.518 534.513" fill="#E6E6E6"/>
<path d="M97.3828 574.847C95.7544 562.983 94.079 550.966 95.224 538.975C96.2387 528.326 99.4877 517.926 106.102 509.396C109.613 504.877 113.886 501.006 118.727 497.956C119.989 497.159 121.151 499.159 119.894 499.952C111.517 505.247 105.038 513.064 101.39 522.278C97.3613 532.524 96.7144 543.694 97.4083 554.578C97.8277 561.161 98.7191 567.7 99.6142 574.231C99.6849 574.526 99.6407 574.837 99.4907 575.102C99.3407 575.366 99.0961 575.563 98.8062 575.653C98.5104 575.733 98.1952 575.693 97.9289 575.542C97.6626 575.39 97.4667 575.14 97.3837 574.845L97.3828 574.847Z" fill="#F2F2F2"/>
<path d="M109.104 555.811C110.786 558.368 113.099 560.45 115.819 561.854C118.539 563.259 121.575 563.939 124.635 563.829C132.499 563.456 139.053 557.969 144.952 552.759L162.404 537.35L150.854 536.797C142.548 536.399 134.027 536.026 126.116 538.591C118.205 541.155 110.908 547.317 109.462 555.506" fill="#E6E6E6"/>
<path d="M92.7791 581.667C100.619 567.795 109.711 552.379 125.96 547.451C130.477 546.086 135.214 545.597 139.915 546.01C141.397 546.138 141.027 548.422 139.548 548.295C131.668 547.64 123.803 549.721 117.277 554.187C110.997 558.461 106.107 564.404 101.969 570.706C99.4338 574.566 97.1631 578.59 94.8925 582.609C94.1669 583.893 92.0451 582.966 92.7791 581.667Z" fill="#F2F2F2"/>
<path d="M880.857 551.651C878.577 553.694 875.809 555.115 872.82 555.778C869.831 556.44 866.722 556.322 863.792 555.434C856.284 553.063 851.351 546.084 846.979 539.539L834.045 520.181L845.353 522.599C853.485 524.337 861.817 526.154 868.811 530.655C875.804 535.156 881.283 542.978 880.588 551.265" fill="#E6E6E6"/>
<path d="M890.03 580.821C885.996 565.406 881.146 548.178 866.696 539.261C862.678 536.787 858.223 535.103 853.573 534.301C852.107 534.046 851.881 536.349 853.343 536.604C861.129 537.985 868.202 542.007 873.369 547.992C878.348 553.73 881.557 560.725 883.947 567.875C885.411 572.255 886.578 576.726 887.746 581.191C888.119 582.619 890.408 582.264 890.03 580.821Z" fill="#F2F2F2"/>
<path d="M731.159 355.093H466.835C464.724 355.09 462.7 354.251 461.208 352.758C459.715 351.266 458.875 349.242 458.873 347.131V257.962C458.875 255.851 459.715 253.827 461.208 252.335C462.7 250.842 464.724 250.002 466.835 250H731.159C733.27 250.002 735.293 250.842 736.786 252.335C738.278 253.827 739.118 255.851 739.12 257.962V347.131C739.118 349.242 738.278 351.266 736.786 352.758C735.293 354.251 733.27 355.09 731.159 355.093Z" fill="#F1F1F1"/>
<path d="M570.335 273.885H500.273V281.846H570.335V273.885Z" fill="#6C63FF"/>
<path d="M662.689 283.439C665.327 283.439 667.466 281.3 667.466 278.662C667.466 276.023 665.327 273.885 662.689 273.885C660.051 273.885 657.912 276.023 657.912 278.662C657.912 281.3 660.051 283.439 662.689 283.439Z" fill="#6C63FF"/>
<path d="M678.613 283.439C681.251 283.439 683.39 281.3 683.39 278.662C683.39 276.023 681.251 273.885 678.613 273.885C675.975 273.885 673.836 276.023 673.836 278.662C673.836 281.3 675.975 283.439 678.613 283.439Z" fill="#6C63FF"/>
<path d="M694.536 283.439C697.174 283.439 699.313 281.3 699.313 278.662C699.313 276.023 697.174 273.885 694.536 273.885C691.897 273.885 689.759 276.023 689.759 278.662C689.759 281.3 691.897 283.439 694.536 283.439Z" fill="#6C63FF"/>
<path d="M731.159 468.147H466.835C464.724 468.145 462.7 467.305 461.208 465.812C459.715 464.32 458.875 462.296 458.873 460.185V371.016C458.875 368.905 459.715 366.881 461.208 365.389C462.7 363.896 464.724 363.057 466.835 363.054H731.159C733.27 363.057 735.293 363.896 736.786 365.389C738.278 366.881 739.118 368.905 739.12 371.016V460.185C739.118 462.296 738.278 464.32 736.786 465.812C735.293 467.305 733.27 468.145 731.159 468.147V468.147Z" fill="#F1F1F1"/>
<path d="M570.335 386.939H500.273V394.901H570.335V386.939Z" fill="#6C63FF"/>
<path d="M662.689 396.493C665.327 396.493 667.466 394.354 667.466 391.716C667.466 389.078 665.327 386.939 662.689 386.939C660.051 386.939 657.912 389.078 657.912 391.716C657.912 394.354 660.051 396.493 662.689 396.493Z" fill="#6C63FF"/>
<path d="M678.613 396.493C681.251 396.493 683.39 394.354 683.39 391.716C683.39 389.078 681.251 386.939 678.613 386.939C675.975 386.939 673.836 389.078 673.836 391.716C673.836 394.354 675.975 396.493 678.613 396.493Z" fill="#6C63FF"/>
<path d="M694.536 396.493C697.174 396.493 699.313 394.354 699.313 391.716C699.313 389.078 697.174 386.939 694.536 386.939C691.897 386.939 689.759 389.078 689.759 391.716C689.759 394.354 691.897 396.493 694.536 396.493Z" fill="#6C63FF"/>
<path d="M731.159 581.201H466.835C464.724 581.199 462.7 580.359 461.208 578.867C459.715 577.374 458.875 575.351 458.873 573.24V484.07C458.875 481.959 459.715 479.936 461.208 478.443C462.7 476.951 464.724 476.111 466.835 476.109H731.159C733.27 476.111 735.293 476.951 736.786 478.443C738.278 479.936 739.118 481.959 739.12 484.07V573.24C739.118 575.351 738.278 577.374 736.786 578.867C735.293 580.359 733.27 581.199 731.159 581.201V581.201Z" fill="#F1F1F1"/>
<path d="M570.335 499.993H500.273V507.955H570.335V499.993Z" fill="#6C63FF"/>
<path d="M662.689 509.547C665.327 509.547 667.466 507.408 667.466 504.77C667.466 502.132 665.327 499.993 662.689 499.993C660.051 499.993 657.912 502.132 657.912 504.77C657.912 507.408 660.051 509.547 662.689 509.547Z" fill="#6C63FF"/>
<path d="M678.613 509.547C681.251 509.547 683.39 507.408 683.39 504.77C683.39 502.132 681.251 499.993 678.613 499.993C675.975 499.993 673.836 502.132 673.836 504.77C673.836 507.408 675.975 509.547 678.613 509.547Z" fill="#6C63FF"/>
<path d="M694.536 509.547C697.174 509.547 699.313 507.408 699.313 504.77C699.313 502.132 697.174 499.993 694.536 499.993C691.897 499.993 689.759 502.132 689.759 504.77C689.759 507.408 691.897 509.547 694.536 509.547Z" fill="#6C63FF"/>
<path d="M631.511 162.927L631.219 162.711L631.212 162.705C630.835 162.425 630.406 162.222 629.951 162.108C629.495 161.994 629.022 161.97 628.557 162.039C628.093 162.107 627.646 162.267 627.243 162.508C626.84 162.749 626.489 163.067 626.209 163.444L566.713 243.55H560.167V242.012C560.167 241.633 560.016 241.269 559.748 241.001C559.48 240.732 559.116 240.582 558.737 240.582H554.831C554.452 240.582 554.088 240.732 553.82 241.001C553.552 241.269 553.401 241.633 553.401 242.012V243.55H551.14V242.012C551.14 241.633 550.99 241.269 550.721 241.001C550.453 240.732 550.089 240.582 549.71 240.582H545.805C545.425 240.582 545.061 240.732 544.793 241.001C544.525 241.269 544.374 241.633 544.374 242.012V243.55H542.121V242.012C542.121 241.633 541.97 241.269 541.702 241.001C541.434 240.732 541.07 240.582 540.691 240.582H536.785C536.406 240.582 536.042 240.732 535.774 241.001C535.505 241.269 535.355 241.633 535.355 242.012V243.55H533.094V242.012C533.094 241.633 532.944 241.269 532.675 241.001C532.407 240.732 532.043 240.582 531.664 240.582H527.759C527.379 240.582 527.015 240.732 526.747 241.001C526.479 241.269 526.328 241.633 526.328 242.012V243.55H524.075V242.012C524.075 241.633 523.924 241.269 523.656 241.001C523.388 240.732 523.024 240.582 522.645 240.582H518.739C518.551 240.582 518.365 240.619 518.192 240.691C518.018 240.762 517.86 240.868 517.728 241.001C517.595 241.133 517.489 241.291 517.418 241.465C517.346 241.638 517.309 241.824 517.309 242.012V243.55H515.048V242.012C515.048 241.633 514.898 241.269 514.629 241.001C514.361 240.732 513.997 240.582 513.618 240.582H509.713C509.333 240.582 508.969 240.732 508.701 241.001C508.433 241.269 508.282 241.633 508.282 242.012V243.55H506.022V242.012C506.022 241.633 505.871 241.269 505.603 241.001C505.334 240.732 504.971 240.582 504.591 240.582H500.686C500.307 240.582 499.943 240.732 499.674 241.001C499.406 241.269 499.255 241.633 499.255 242.012V243.55H497.002V242.012C497.002 241.633 496.852 241.269 496.583 241.001C496.315 240.732 495.951 240.582 495.572 240.582H491.667C491.287 240.582 490.923 240.732 490.655 241.001C490.387 241.269 490.236 241.633 490.236 242.012V243.55H487.976V242.012C487.976 241.633 487.825 241.269 487.557 241.001C487.288 240.732 486.925 240.582 486.545 240.582H482.64C482.26 240.582 481.897 240.732 481.628 241.001C481.36 241.269 481.209 241.633 481.209 242.012V243.55H478.956V242.012C478.956 241.633 478.806 241.269 478.537 241.001C478.269 240.732 477.905 240.582 477.526 240.582H473.62C473.241 240.582 472.877 240.732 472.609 241.001C472.341 241.269 472.19 241.633 472.19 242.012V243.55H469.358C468.888 243.55 468.423 243.643 467.989 243.822C467.555 244.002 467.161 244.265 466.829 244.598C466.497 244.93 466.233 245.324 466.053 245.758C465.874 246.192 465.781 246.657 465.781 247.126V250.538C465.781 251.008 465.874 251.473 466.053 251.907C466.233 252.341 466.497 252.735 466.829 253.067C467.161 253.399 467.555 253.663 467.989 253.842C468.423 254.022 468.888 254.114 469.358 254.114H566.119C567.345 254.114 568.533 253.692 569.483 252.918C570.433 252.145 571.088 251.067 571.337 249.867L571.374 249.895L632.245 167.937L632.25 167.93C632.816 167.169 633.056 166.214 632.917 165.275C632.778 164.337 632.273 163.492 631.511 162.927V162.927Z" fill="#3F3D56"/>
<path d="M255.504 550.825L267.523 556.976L296.966 513.544L279.228 504.466L255.504 550.825Z" fill="#FFB7B7"/>
<path d="M254.446 545.332L278.116 557.445L278.117 557.446C282.117 559.493 285.14 563.046 286.521 567.323C287.902 571.599 287.528 576.249 285.481 580.249L285.23 580.74L246.476 560.907L254.446 545.332Z" fill="#2F2E41"/>
<path d="M394.317 567.652H407.819L414.242 515.575H394.315L394.317 567.652Z" fill="#FFB7B7"/>
<path d="M390.873 563.244L417.462 563.243H417.463C421.957 563.243 426.267 565.029 429.445 568.206C432.622 571.384 434.408 575.694 434.408 580.188V580.738L390.874 580.74L390.873 563.244Z" fill="#2F2E41"/>
<path d="M331.163 142.873C331.163 142.873 322.122 135.946 322.122 152.866L320.694 208.778L336.635 261.598L345.915 244.467L342.108 207.351L331.163 142.873Z" fill="#2F2E41"/>
<path d="M427.878 295.804C427.878 295.804 438.362 346.862 425.082 388.764L417.743 549.871L390.834 547.774L381.398 428.254L372.312 368.844L353.44 423.012L291.234 537.639L262.577 515.273C262.577 515.273 294.333 428.624 317.794 410.431L329.56 276.42L427.878 295.804Z" fill="#2F2E41"/>
<path d="M422.903 58.643C431.031 43.7741 425.567 25.1314 410.698 17.0033C395.829 8.87526 377.186 14.3398 369.058 29.2087C360.93 44.0776 366.394 62.7203 381.263 70.8484C396.132 78.9764 414.775 73.5119 422.903 58.643Z" fill="#FFB7B7"/>
<path d="M393.809 50.4337C397.487 50.9123 400.261 47.1491 401.548 43.6704C402.835 40.1917 403.816 36.1418 407.013 34.2626C411.382 31.6954 416.972 34.7831 421.968 33.9361C427.61 32.9796 431.279 27 431.566 21.2846C431.854 15.5692 429.579 10.0722 427.348 4.8027L426.568 11.3515C426.673 9.13198 426.206 6.92281 425.212 4.93533C424.218 2.94786 422.731 1.24857 420.893 0L421.897 9.60941C421.684 8.28364 421.21 7.01314 420.504 5.8708C419.798 4.72846 418.874 3.73678 417.784 2.95267C416.693 2.16856 415.459 1.60745 414.152 1.30156C412.844 0.995668 411.489 0.951012 410.164 1.17015L410.322 6.8958C403.806 6.12091 397.232 5.34492 390.696 5.93527C384.16 6.52562 377.579 8.59355 372.625 12.898C365.215 19.3367 362.509 29.9388 363.417 39.7133C364.326 49.4877 368.361 58.67 372.566 67.5403C373.624 69.772 375.087 72.2904 377.541 72.5747C379.745 72.8301 381.762 70.9874 382.448 68.8767C382.976 66.711 382.955 64.4478 382.388 62.292C381.768 58.9974 380.987 55.6299 381.569 52.3285C382.152 49.0271 384.527 45.7648 387.855 45.3602C391.183 44.9556 394.589 48.7596 392.989 51.7056L393.809 50.4337Z" fill="#2F2E41"/>
<path d="M429.776 309.458L327.357 302.85L335.066 270.913L428.674 291.838L429.776 309.458Z" fill="#CBCBCB"/>
<path d="M366.613 85.7703L373.037 76.8516C373.037 76.8516 380.218 79.2917 399.447 88.8634L400.806 97.2195L434.185 302.521L373.513 299.904L356.991 299.553L351.585 287.433L344.917 299.296L328.783 298.952L312.366 289.435L328.545 239.947L333.78 194.741L325.69 152.152C325.69 152.152 315.511 113.043 354.717 91.9565L366.613 85.7703Z" fill="#2F2E41"/>
<path d="M503.362 241.185C501.877 241.563 500.326 241.61 498.82 241.323C497.314 241.037 495.889 240.424 494.646 239.527C493.403 238.63 492.371 237.472 491.624 236.133C490.877 234.794 490.432 233.308 490.321 231.779L454.326 222.138L468.806 209.281L500.768 220.408C503.349 220.392 505.846 221.324 507.786 223.026C509.726 224.728 510.974 227.083 511.294 229.644C511.614 232.205 510.983 234.795 509.521 236.922C508.059 239.049 505.868 240.566 503.362 241.185V241.185Z" fill="#FFB7B7"/>
<path d="M487.241 235.742C486.484 236.154 485.649 236.403 484.79 236.471C483.93 236.539 483.066 236.426 482.254 236.138L423.041 213.664C408.595 208.543 396.501 198.35 389.009 184.98L364.316 140.931C362.582 138.995 361.247 136.737 360.387 134.285C359.526 131.832 359.158 129.235 359.303 126.64C359.448 124.046 360.103 121.505 361.231 119.164C362.359 116.823 363.937 114.727 365.876 112.997C367.815 111.267 370.076 109.935 372.529 109.08C374.983 108.224 377.581 107.861 380.176 108.01C382.77 108.16 385.309 108.82 387.648 109.952C389.987 111.084 392.08 112.666 393.807 114.608L436.547 182.349L490.333 213.884C491.388 214.575 492.204 215.574 492.672 216.745C493.14 217.916 493.238 219.202 492.951 220.43L490.276 231.764C489.989 232.979 489.338 234.078 488.41 234.914C488.054 235.235 487.662 235.513 487.241 235.742V235.742Z" fill="#2F2E41"/>
<path d="M944 583H1C0.734784 583 0.480429 582.895 0.292892 582.707C0.105356 582.52 0 582.265 0 582C0 581.735 0.105356 581.48 0.292892 581.293C0.480429 581.105 0.734784 581 1 581H944C944.265 581 944.52 581.105 944.707 581.293C944.895 581.48 945 581.735 945 582C945 582.265 944.895 582.52 944.707 582.707C944.52 582.895 944.265 583 944 583Z" fill="#CBCBCB"/>
</g>
<defs>
<clipPath id="clip0_113_2">
<rect width="945" height="583.224" fill="white"/>
</clipPath>
</defs>
</svg>
