<svg width="693" height="528" viewBox="0 0 693 528" fill="none" xmlns="http://www.w3.org/2000/svg">
<g clip-path="url(#clip0_112_170)">
<path d="M693 283.5V505.31C692.993 511.326 690.6 517.093 686.346 521.346C682.093 525.6 676.325 527.993 670.31 528H500.17L501.75 526L691 286.04L693 283.5Z" fill="#F2F2F2"/>
<path d="M270.812 205.368H75.4432C73.8424 205.368 72.3071 206.004 71.1751 207.136C70.0431 208.268 69.4072 209.803 69.4072 211.404C69.4072 213.005 70.0431 214.54 71.1751 215.672C72.3071 216.804 73.8424 217.44 75.4432 217.44H270.812C272.413 217.44 273.948 216.804 275.08 215.672C276.212 214.54 276.848 213.005 276.848 211.404C276.848 209.803 276.212 208.268 275.08 207.136C273.948 206.004 272.413 205.368 270.812 205.368Z" fill="#E6E6E6"/>
<path d="M136.018 171.524H75.4432C73.8424 171.524 72.3071 172.16 71.1751 173.291C70.0431 174.423 69.4072 175.959 69.4072 177.56C69.4072 179.16 70.0431 180.696 71.1751 181.828C72.3071 182.96 73.8424 183.596 75.4432 183.596H136.018C137.619 183.596 139.154 182.96 140.286 181.828C141.418 180.696 142.054 179.16 142.054 177.56C142.054 175.959 141.418 174.423 140.286 173.291C139.154 172.16 137.619 171.524 136.018 171.524H136.018Z" fill="#E6E6E6"/>
<path d="M670.31 0H22.69C16.6745 0.0072432 10.9074 2.40012 6.65375 6.65375C2.40012 10.9074 0.0072432 16.6745 0 22.69V505.31C0.0072432 511.326 2.40012 517.093 6.65375 521.346C10.9074 525.6 16.6745 527.993 22.69 528H670.31C676.326 527.993 682.093 525.6 686.346 521.346C690.6 517.093 692.993 511.326 693 505.31V22.69C692.993 16.6745 690.6 10.9074 686.346 6.65375C682.093 2.40012 676.326 0.0072432 670.31 0V0ZM691 505.31C691 508.027 690.465 510.717 689.425 513.228C688.385 515.738 686.861 518.019 684.94 519.94C683.019 521.861 680.738 523.385 678.228 524.425C675.717 525.465 673.027 526 670.31 526H22.69C17.2027 526 11.9401 523.82 8.05997 519.94C4.17984 516.06 2 510.797 2 505.31V157.676C2 116.388 18.4015 76.7911 47.5963 47.5963C76.7911 18.4015 116.388 2 157.676 2H670.31C673.027 2 675.717 2.53517 678.228 3.57494C680.738 4.61471 683.019 6.13872 684.94 8.05997C686.861 9.98121 688.385 12.2621 689.425 14.7723C690.465 17.2825 691 19.973 691 22.69V505.31Z" fill="#E6E6E6"/>
<path d="M629.891 87.2686H63.1602C62.8949 87.2686 62.6406 87.1632 62.453 86.9757C62.2655 86.7881 62.1602 86.5338 62.1602 86.2686C62.1602 86.0033 62.2655 85.749 62.453 85.5615C62.6406 85.3739 62.8949 85.2686 63.1602 85.2686H629.891C630.156 85.2686 630.41 85.3739 630.598 85.5615C630.785 85.749 630.891 86.0033 630.891 86.2686C630.891 86.5338 630.785 86.7881 630.598 86.9757C630.41 87.1632 630.156 87.2686 629.891 87.2686Z" fill="#E6E6E6"/>
<path d="M91.5147 57.248C96.1852 57.248 99.9713 53.3775 99.9713 48.603C99.9713 43.8284 96.1852 39.9579 91.5147 39.9579C86.8443 39.9579 83.0581 43.8284 83.0581 48.603C83.0581 53.3775 86.8443 57.248 91.5147 57.248Z" fill="#E6E6E6"/>
<path d="M120.729 57.248C125.399 57.248 129.185 53.3775 129.185 48.603C129.185 43.8284 125.399 39.9579 120.729 39.9579C116.058 39.9579 112.272 43.8284 112.272 48.603C112.272 53.3775 116.058 57.248 120.729 57.248Z" fill="#E6E6E6"/>
<path d="M149.942 57.248C154.613 57.248 158.399 53.3775 158.399 48.603C158.399 43.8284 154.613 39.9579 149.942 39.9579C145.272 39.9579 141.486 43.8284 141.486 48.603C141.486 53.3775 145.272 57.248 149.942 57.248Z" fill="#E6E6E6"/>
<path d="M183.254 55.4358C183.121 55.436 182.989 55.4094 182.866 55.3578C182.743 55.3061 182.632 55.2304 182.539 55.135L176.833 49.302C176.65 49.1152 176.548 48.8642 176.548 48.6028C176.548 48.3414 176.65 48.0904 176.833 47.9036L182.539 42.0711C182.631 41.9757 182.74 41.8994 182.861 41.8466C182.982 41.7938 183.113 41.7655 183.245 41.7634C183.377 41.7613 183.508 41.7854 183.631 41.8344C183.754 41.8833 183.866 41.956 183.96 42.0484C184.055 42.1408 184.13 42.251 184.181 42.3727C184.233 42.4943 184.26 42.625 184.261 42.7571C184.262 42.8893 184.236 43.0203 184.186 43.1425C184.136 43.2648 184.062 43.3759 183.969 43.4695L178.947 48.6028L183.969 53.7366C184.107 53.8773 184.2 54.0555 184.236 54.2489C184.273 54.4422 184.252 54.6421 184.176 54.8236C184.099 55.005 183.971 55.1599 183.807 55.2688C183.643 55.3777 183.451 55.4358 183.254 55.4358V55.4358Z" fill="#E6E6E6"/>
<path d="M192.842 55.4358C192.645 55.4358 192.453 55.3777 192.289 55.2688C192.125 55.1599 191.997 55.005 191.921 54.8236C191.844 54.6421 191.823 54.4422 191.86 54.2488C191.897 54.0555 191.99 53.8773 192.127 53.7366L197.149 48.6028L192.127 43.4695C191.945 43.2793 191.845 43.0248 191.849 42.7613C191.853 42.4978 191.961 42.2466 192.15 42.0623C192.338 41.8781 192.592 41.7756 192.855 41.7772C193.119 41.7789 193.371 41.8844 193.557 42.071L199.263 47.9035C199.445 48.0903 199.548 48.3413 199.548 48.6028C199.548 48.8642 199.445 49.1152 199.263 49.302L193.557 55.135C193.464 55.2303 193.353 55.3061 193.23 55.3578C193.107 55.4094 192.975 55.436 192.842 55.4358V55.4358Z" fill="#E6E6E6"/>
<path d="M579.352 40.9589H568.742C568.454 40.9588 568.169 41.0154 567.904 41.1254C567.638 41.2354 567.396 41.3967 567.193 41.6001C566.99 41.8035 566.828 42.0449 566.718 42.3107C566.608 42.5764 566.552 42.8612 566.552 43.1489V53.7689C566.552 54.0565 566.608 54.3413 566.718 54.607C566.828 54.8728 566.99 55.1142 567.193 55.3176C567.396 55.521 567.638 55.6823 567.904 55.7923C568.169 55.9024 568.454 55.9589 568.742 55.9589H579.352C579.934 55.9594 580.492 55.7292 580.904 55.3186C581.317 54.9081 581.55 54.3508 581.552 53.7689V43.1489C581.55 42.5669 581.317 42.0096 580.904 41.5991C580.492 41.1885 579.934 40.9583 579.352 40.9589Z" fill="#E6E6E6"/>
<path d="M553.352 40.9589H542.742C542.454 40.9588 542.169 41.0154 541.904 41.1254C541.638 41.2354 541.396 41.3967 541.193 41.6001C540.99 41.8035 540.828 42.0449 540.718 42.3107C540.608 42.5764 540.552 42.8612 540.552 43.1489V53.7689C540.552 54.0565 540.608 54.3413 540.718 54.607C540.828 54.8728 540.99 55.1142 541.193 55.3176C541.396 55.521 541.638 55.6823 541.904 55.7923C542.169 55.9024 542.454 55.9589 542.742 55.9589H553.352C553.934 55.9594 554.492 55.7292 554.904 55.3186C555.317 54.9081 555.55 54.3508 555.552 53.7689V43.1489C555.55 42.5669 555.317 42.0096 554.904 41.5991C554.492 41.1885 553.934 40.9583 553.352 40.9589V40.9589Z" fill="#E6E6E6"/>
<path d="M603.852 41.4589H593.242C592.954 41.4588 592.669 41.5154 592.404 41.6254C592.138 41.7354 591.896 41.8967 591.693 42.1001C591.49 42.3035 591.328 42.5449 591.218 42.8107C591.108 43.0764 591.052 43.3612 591.052 43.6489V54.2689C591.052 54.5565 591.108 54.8413 591.218 55.107C591.328 55.3728 591.49 55.6142 591.693 55.8176C591.896 56.021 592.138 56.1823 592.404 56.2923C592.669 56.4024 592.954 56.4589 593.242 56.4589H603.852C604.434 56.4594 604.992 56.2292 605.404 55.8186C605.817 55.4081 606.05 54.8508 606.052 54.2689V43.6489C606.05 43.0669 605.817 42.5096 605.404 42.0991C604.992 41.6885 604.434 41.4583 603.852 41.4589V41.4589Z" fill="#E6E6E6"/>
<path d="M388.93 45.4988H304.12C303.412 45.4988 302.733 45.7801 302.232 46.2808C301.731 46.7815 301.45 47.4606 301.45 48.1688C301.45 48.8769 301.731 49.556 302.232 50.0567C302.733 50.5575 303.412 50.8388 304.12 50.8388H388.93C389.638 50.8388 390.317 50.5575 390.818 50.0567C391.319 49.556 391.6 48.8769 391.6 48.1688C391.6 47.4606 391.319 46.7815 390.818 46.2808C390.317 45.7801 389.638 45.4988 388.93 45.4988V45.4988Z" fill="#E6E6E6"/>
<path d="M161.608 410.446L110.891 408.843C103.856 408.621 95.9462 408.632 90.929 412.267C85.2347 416.393 86.0968 423.703 90.8247 428.444C95.5525 433.185 103.102 435.893 110.511 438.096C149.875 449.796 193.44 452.171 235.74 449.524C278.04 446.876 319.47 439.392 360.695 431.933C364.605 431.226 369.037 430.208 370.631 427.487C372.174 424.855 370.156 421.68 367.021 419.979C363.886 418.278 359.911 417.705 356.077 417.198C286.63 408.072 216.431 406.07 146.577 411.222" fill="#6C63FF"/>
<path d="M252.73 371.44V359.44C244.022 359.563 212.859 359.351 204.73 359.44C204.125 401.381 200.417 393.165 234.778 393.329C236.357 393.335 237.87 393.966 238.985 395.084C240.101 396.202 240.728 397.716 240.73 399.295V399.475C240.73 401.057 240.102 402.575 238.983 403.693C237.864 404.812 236.347 405.44 234.765 405.44H204.73V417.44H252.73C252.797 417.4 252.681 405.853 252.73 405.44C254.76 370.675 250.744 383.179 221.564 381.784C220.259 381.718 219.029 381.152 218.129 380.203C217.229 379.255 216.728 377.997 216.73 376.69V376.54C216.73 375.187 217.267 373.89 218.224 372.934C219.18 371.977 220.477 371.44 221.83 371.44H252.73Z" fill="#3F3D56"/>
<path d="M311.73 371.44V359.44C303.022 359.563 271.859 359.351 263.73 359.44C263.12 401.746 259.352 393.019 294.682 393.335C296.026 393.349 297.309 393.892 298.255 394.847C299.2 395.802 299.73 397.091 299.73 398.435C299.73 399.065 299.73 399.71 299.73 400.342C299.73 401.011 299.598 401.674 299.342 402.293C299.085 402.912 298.71 403.474 298.236 403.947C297.763 404.421 297.2 404.796 296.582 405.052C295.963 405.308 295.3 405.44 294.63 405.44H263.73V417.44H311.73C311.797 417.4 311.681 405.853 311.73 405.44C313.76 370.675 309.744 383.179 280.564 381.784C279.259 381.718 278.029 381.152 277.129 380.203C276.229 379.255 275.728 377.997 275.73 376.69V376.54C275.73 375.187 276.267 373.89 277.224 372.934C278.18 371.977 279.477 371.44 280.83 371.44H311.73Z" fill="#3F3D56"/>
<path d="M190.73 371.44V359.44H142.73C142.696 370.143 142.754 398.472 142.73 409.44C133.321 425.369 186.772 414.34 190.733 417.444C190.73 417.44 190.73 405.44 190.73 405.44C154.209 405.249 153.291 412.086 154.466 379.01C154.537 376.979 155.393 375.055 156.854 373.643C158.315 372.231 160.268 371.441 162.3 371.439C172.858 371.44 190.73 371.44 190.73 371.44Z" fill="#3F3D56"/>
<path d="M285.608 267.112L234.891 265.776C227.856 265.591 219.946 265.6 214.929 268.63C209.235 272.07 210.097 278.163 214.825 282.115C219.552 286.067 227.102 288.325 234.511 290.161C273.875 299.913 317.44 301.893 359.74 299.687C402.04 297.48 443.47 291.241 484.695 285.024C488.605 284.434 493.037 283.585 494.631 281.317C496.174 279.123 494.156 276.477 491.021 275.059C487.886 273.641 483.911 273.163 480.077 272.741C410.512 265.131 340.425 263.464 270.577 267.759" fill="#6C63FF"/>
<path d="M276.73 214.44C275.912 232.966 282.722 238.798 259.229 236.438C257.641 225.386 265.691 210.048 247.23 213.942C250.928 221.96 236.927 282.786 259.226 271.937C260.478 253.662 252.224 245.646 276.73 248.442C278.695 259.739 269.523 276.363 288.729 272.438C285.031 264.417 299.032 203.596 276.73 214.44Z" fill="#3F3D56"/>
<path d="M399.73 214.44C401.377 215.457 384.64 233.164 384.279 234.615C383.776 233.376 367.801 216.052 369.73 214.441C347.501 203.456 361.355 264.635 357.726 272.443C357.73 272.44 369.73 272.44 369.73 272.44V234.442C386.597 257.192 383.465 253.363 399.73 233.325L399.73 272.44C421.959 283.429 408.106 222.241 411.734 214.437C411.73 214.44 399.73 214.44 399.73 214.44Z" fill="#3F3D56"/>
<path d="M346.73 214.44H298.73C295.909 231.262 305.235 225.62 316.731 226.44L316.73 272.44H328.73V226.44C340.173 225.662 349.586 231.188 346.73 214.44Z" fill="#3F3D56"/>
<path d="M433.73 260.44C430.958 245.232 430.958 229.648 433.73 214.44H421.73C421.799 222.043 421.709 252.722 421.716 266.752C421.715 268.266 422.316 269.718 423.386 270.789C424.456 271.861 425.907 272.463 427.422 272.464C439.511 272.48 462.592 272.391 469.73 272.44L469.73 260.44H433.73Z" fill="#3F3D56"/>
<path d="M127.181 262.44H78.4072C76.0203 262.44 73.7311 263.388 72.0432 265.076C70.3554 266.764 69.4072 269.053 69.4072 271.44C69.4072 273.827 70.3554 276.116 72.0432 277.804C73.7311 279.492 76.0203 280.44 78.4072 280.44H127.181C129.568 280.44 131.858 279.492 133.545 277.804C135.233 276.116 136.181 273.827 136.181 271.44C136.181 269.053 135.233 266.764 133.545 265.076C131.858 263.388 129.568 262.44 127.181 262.44H127.181Z" fill="#E6E6E6"/>
<path d="M569.392 517.568L559.491 517.567L554.781 479.377L569.394 479.378L569.392 517.568Z" fill="#FFB6B6"/>
<path d="M569.74 527.897L539.293 527.896V527.511C539.294 524.368 540.542 521.353 542.765 519.131C544.987 516.909 548.001 515.66 551.144 515.66H551.145L556.707 511.441L567.083 515.661L569.741 515.661L569.74 527.897Z" fill="#2F2E41"/>
<path d="M604.392 517.568L594.491 517.567L589.781 479.377L604.394 479.378L604.392 517.568Z" fill="#FFB6B6"/>
<path d="M604.74 527.897L574.293 527.896V527.511C574.294 524.368 575.542 521.353 577.765 519.131C579.987 516.909 583.001 515.66 586.144 515.66H586.145L591.707 511.441L602.083 515.661L604.741 515.661L604.74 527.897Z" fill="#2F2E41"/>
<path d="M544.74 309.48C544.74 309.48 535.213 338.738 536.972 342.589C538.73 346.44 541.73 343.44 538.73 346.44C535.73 349.44 533.111 346.251 535.921 351.346C538.73 356.44 542.986 398.38 544.858 400.41C546.73 402.44 549.304 402.494 547.017 404.467C544.73 406.44 541.73 402.44 544.73 406.44C547.73 410.44 555.691 502.716 555.691 502.716H571.242C571.242 502.716 575.115 498.251 572.923 495.346C570.73 492.44 573.115 491.32 572.923 489.38C572.73 487.44 573.459 483.257 573.595 481.349C573.73 479.44 576.358 433.971 570.044 407.706L581.558 357.693L587.315 418.14C587.315 418.14 580.899 468.842 587.315 485.141C587.315 485.141 582.142 489.448 584.436 491.944C586.73 494.44 588.73 492.44 586.73 494.44C584.73 496.44 589.73 503.44 589.73 503.44L606.73 502.44L616.352 407.706C616.352 407.706 617.974 397.826 616.352 396.133C614.73 394.44 614.73 400.44 614.73 394.44V386.44C614.73 386.44 621.981 337.235 621.856 334.338C621.73 331.44 609.73 310.44 609.73 310.44L544.74 309.48Z" fill="#2F2E41"/>
<path d="M595.019 191.147L570.196 189.44L562.768 201.152L544.88 208.425V266.119C546.741 271.706 547.703 277.552 547.73 283.44C547.662 294.934 544.707 308.475 545.73 311.44C555.73 340.44 610.73 311.44 610.73 311.44L609.73 280.44L611.087 210.381L599.848 201.417L595.019 191.147Z" fill="#E6E6E6"/>
<path d="M543.732 322.005L542.021 303.763L531.464 303.287L533.96 322.509C533.319 323.453 532.955 324.557 532.908 325.697C532.861 326.837 533.133 327.968 533.694 328.962C534.254 329.956 535.08 330.774 536.08 331.324C537.08 331.874 538.213 332.134 539.352 332.075C540.492 332.016 541.592 331.641 542.53 330.991C543.468 330.341 544.206 329.442 544.661 328.396C545.116 327.35 545.27 326.197 545.106 325.068C544.942 323.939 544.466 322.878 543.732 322.005L543.732 322.005Z" fill="#FFB6B6"/>
<path d="M548.928 206.886L548.635 206.936C545.913 207.397 543.345 208.515 541.152 210.193C538.959 211.871 537.208 214.058 536.051 216.564C533.028 223.102 523.211 266.081 527.514 272.562C530.852 277.589 530.041 276.609 528.472 280.4C526.903 284.192 524.376 280.146 526.447 286.164C528.518 292.182 530.794 291.323 528.872 293.649C526.949 295.974 524.977 295.518 526.847 299.412C528.716 303.307 528.412 304.621 528.766 306.088C529.119 307.554 528.812 317.869 528.812 317.869C528.812 317.869 540.088 317.014 545.7 319.696C545.7 319.696 542.569 309.278 544.339 307.61C546.11 305.942 548.233 305.741 546.717 303.313C545.201 300.886 541.763 300.783 545.505 299.571C549.248 298.359 548.042 276.615 548.042 276.615C554.205 260.475 551.77 233.927 548.928 206.886Z" fill="#E6E6E6"/>
<path d="M616.922 323.306L617.711 305.002L628.231 303.994L626.708 323.317C627.395 324.228 627.814 325.312 627.918 326.448C628.023 327.585 627.808 328.727 627.299 329.748C626.79 330.769 626.005 331.628 625.035 332.227C624.064 332.827 622.946 333.144 621.805 333.143C620.664 333.142 619.546 332.822 618.576 332.221C617.607 331.619 616.825 330.759 616.317 329.737C615.81 328.715 615.598 327.571 615.705 326.435C615.812 325.3 616.233 324.216 616.922 323.306V323.306Z" fill="#FFB6B6"/>
<path d="M605.926 208.597L606.221 208.632C608.963 208.955 611.585 209.942 613.859 211.507C616.134 213.072 617.993 215.168 619.275 217.613C622.625 223.99 633.22 267.182 630.626 273.109C628.207 278.637 628.307 277.277 630.065 280.985C631.823 284.693 634.142 280.525 632.378 286.639C630.613 292.754 628.297 292.011 630.334 294.237C632.371 296.462 634.318 295.907 632.647 299.891C630.977 303.875 631.346 305.172 631.067 306.655C630.788 308.137 631.616 318.424 631.616 318.424C631.616 318.424 620.311 318.138 614.841 321.1C614.841 321.1 617.443 310.538 615.591 308.961C613.738 307.385 611.607 307.29 612.999 304.789C614.39 302.288 617.819 302.013 614.021 300.991C610.222 299.969 610.329 278.192 610.329 278.192L605.926 208.597Z" fill="#E6E6E6"/>
<path d="M583.217 185.772C593.911 185.772 602.579 177.104 602.579 166.41C602.579 155.717 593.911 147.048 583.217 147.048C572.524 147.048 563.855 155.717 563.855 166.41C563.855 177.104 572.524 185.772 583.217 185.772Z" fill="#FFB6B6"/>
<path d="M596.692 182.984C599.385 180.877 599.646 176.86 601.944 174.327C605.786 170.094 607.592 165.539 605.579 160.522C603.799 156.085 604.177 150.631 600.343 147.775C602.226 147.093 602.669 145.678 601.008 145.651C599.887 145.634 595.711 147.775 597.72 145.108C599.73 142.44 595.926 143.493 596.177 142.401C596.429 141.309 598.043 140.704 598.754 141.57C598.153 140.956 597.42 140.488 596.611 140.201C595.802 139.914 594.937 139.815 594.084 139.913C593.231 140.01 592.411 140.301 591.687 140.764C590.964 141.227 590.355 141.848 589.908 142.582C587.644 139.188 585.24 136.853 581.775 139.006C578.371 141.122 578.416 143.736 574.756 143.108C573.035 142.813 572.873 146.063 571.697 147.354C571.154 148.04 570.448 148.579 569.643 148.923C568.838 149.266 567.96 149.402 567.088 149.32C565.373 148.995 564.061 146.858 565.022 145.4L560.98 154.624L559.35 152.625C556.761 154.313 557.611 158.716 560.218 160.376C562.824 162.037 566.21 161.682 569.212 160.946C572.824 160.06 576.554 159.75 580.264 160.029C585.93 160.83 589.876 167.604 587.778 172.928C589.955 170.79 593.983 172.564 595.11 175.399C596.238 178.234 595.411 181.429 594.575 184.363" fill="#2F2E41"/>
</g>
<defs>
<clipPath id="clip0_112_170">
<rect width="693" height="528" fill="white"/>
</clipPath>
</defs>
</svg>
