<svg width="630" height="371" viewBox="0 0 630 371" fill="none" xmlns="http://www.w3.org/2000/svg">
<path d="M613.85 370.715H16.6051C7.85013 370.715 0.727539 364.046 0.727539 355.847V11.7423C0.727539 5.66223 6.00556 0.715454 12.4932 0.715454H617.767C624.362 0.715454 629.728 5.74378 629.728 11.924V355.847C629.728 364.046 622.605 370.715 613.85 370.715Z" fill="white"/>
<path d="M301.059 75.9544H184.251C182.509 75.9544 180.839 75.2626 179.608 74.0312C178.376 72.7999 177.685 71.1297 177.685 69.3883C177.685 67.6468 178.376 65.9767 179.608 64.7453C180.839 63.5139 182.509 62.8221 184.251 62.8221H301.059C302.8 62.8221 304.47 63.5139 305.702 64.7453C306.933 65.9767 307.625 67.6468 307.625 69.3883C307.625 71.1297 306.933 72.7999 305.702 74.0312C304.47 75.2626 302.8 75.9544 301.059 75.9544V75.9544Z" fill="#CCCCCC"/>
<path d="M446.205 75.9544H329.397C327.655 75.9544 325.985 75.2626 324.754 74.0312C323.522 72.7999 322.831 71.1297 322.831 69.3883C322.831 67.6468 323.522 65.9767 324.754 64.7453C325.985 63.5139 327.655 62.8221 329.397 62.8221H446.205C447.946 62.8221 449.616 63.5139 450.848 64.7453C452.079 65.9767 452.771 67.6468 452.771 69.3883C452.771 71.1297 452.079 72.7999 450.848 74.0312C449.616 75.2626 447.946 75.9544 446.205 75.9544V75.9544Z" fill="#CCCCCC"/>
<path d="M446.205 100.837H243C241.259 100.837 239.589 100.145 238.357 98.9134C237.126 97.682 236.434 96.0119 236.434 94.2705C236.434 92.529 237.126 90.8589 238.357 89.6275C239.589 88.3961 241.259 87.7043 243 87.7043H446.205C447.946 87.7043 449.616 88.3961 450.848 89.6275C452.079 90.8589 452.771 92.529 452.771 94.2705C452.771 96.0119 452.079 97.682 450.848 98.9134C449.616 100.145 447.946 100.837 446.205 100.837Z" fill="#CCCCCC"/>
<path d="M301.059 50.7266H184.25C182.51 50.7245 180.842 50.0317 179.613 48.8006C178.383 47.5694 177.692 45.9005 177.692 44.1605C177.692 42.4205 178.383 40.7515 179.613 39.5204C180.842 38.2892 182.51 37.5965 184.25 37.5944H301.059C301.922 37.5933 302.776 37.7623 303.574 38.0918C304.371 38.4213 305.096 38.9048 305.707 39.5147C306.317 40.1245 306.802 40.8487 307.132 41.6459C307.463 42.443 307.633 43.2975 307.633 44.1605C307.633 45.0235 307.463 45.8779 307.132 46.6751C306.802 47.4723 306.317 48.1965 305.707 48.8063C305.096 49.4162 304.371 49.8996 303.574 50.2291C302.776 50.5586 301.922 50.7277 301.059 50.7266V50.7266Z" fill="#CCCCCC"/>
<path d="M365.338 51.0722H332.161C330.42 51.0722 328.75 50.3804 327.518 49.149C326.287 47.9176 325.595 46.2475 325.595 44.5061C325.595 42.7646 326.287 41.0945 327.518 39.8631C328.75 38.6317 330.42 37.9399 332.161 37.9399H365.338C367.079 37.9399 368.749 38.6317 369.981 39.8631C371.212 41.0945 371.904 42.7646 371.904 44.5061C371.904 46.2475 371.212 47.9176 369.981 49.149C368.749 50.3804 367.079 51.0722 365.338 51.0722Z" fill="#CCCCCC"/>
<path d="M217.427 100.837H184.25C182.51 100.834 180.842 100.142 179.613 98.9106C178.383 97.6794 177.692 96.0105 177.692 94.2705C177.692 92.5304 178.383 90.8615 179.613 89.6304C180.842 88.3992 182.51 87.7065 184.25 87.7044H217.427C218.29 87.7033 219.144 87.8723 219.942 88.2018C220.74 88.5314 221.464 89.0148 222.075 89.6246C222.685 90.2345 223.17 90.9587 223.5 91.7559C223.831 92.553 224.001 93.4075 224.001 94.2705C224.001 95.1334 223.831 95.9879 223.5 96.7851C223.17 97.5823 222.685 98.3065 222.075 98.9163C221.464 99.5261 220.74 100.01 219.942 100.339C219.144 100.669 218.29 100.838 217.427 100.837Z" fill="#CCCCCC"/>
<path d="M301.059 308.955H184.251C182.509 308.955 180.839 308.263 179.608 307.031C178.376 305.8 177.685 304.13 177.685 302.388C177.685 300.647 178.376 298.977 179.608 297.745C180.839 296.514 182.509 295.822 184.251 295.822H301.059C301.921 295.822 302.775 295.992 303.572 296.322C304.368 296.652 305.092 297.136 305.702 297.745C306.312 298.355 306.795 299.079 307.125 299.876C307.455 300.672 307.625 301.526 307.625 302.388C307.625 303.251 307.455 304.105 307.125 304.901C306.795 305.698 306.312 306.422 305.702 307.031C305.092 307.641 304.368 308.125 303.572 308.455C302.775 308.785 301.921 308.955 301.059 308.955V308.955Z" fill="#CCCCCC"/>
<path d="M446.205 308.955H329.397C327.655 308.955 325.985 308.263 324.754 307.031C323.522 305.8 322.831 304.13 322.831 302.388C322.831 300.647 323.522 298.977 324.754 297.745C325.985 296.514 327.655 295.822 329.397 295.822H446.205C447.067 295.822 447.921 295.992 448.718 296.322C449.514 296.652 450.238 297.136 450.848 297.745C451.458 298.355 451.941 299.079 452.271 299.876C452.601 300.672 452.771 301.526 452.771 302.388C452.771 303.251 452.601 304.105 452.271 304.901C451.941 305.698 451.458 306.422 450.848 307.031C450.238 307.641 449.514 308.125 448.718 308.455C447.921 308.785 447.067 308.955 446.205 308.955V308.955Z" fill="#CCCCCC"/>
<path d="M446.205 333.837H243C241.259 333.837 239.589 333.145 238.357 331.913C237.126 330.682 236.434 329.012 236.434 327.27C236.434 325.529 237.126 323.859 238.357 322.628C239.589 321.396 241.259 320.704 243 320.704H446.205C447.068 320.703 447.923 320.872 448.72 321.202C449.518 321.531 450.243 322.015 450.853 322.625C451.464 323.234 451.948 323.959 452.279 324.756C452.609 325.553 452.779 326.407 452.779 327.27C452.779 328.133 452.609 328.988 452.279 329.785C451.948 330.582 451.464 331.306 450.853 331.916C450.243 332.526 449.518 333.01 448.72 333.339C447.923 333.669 447.068 333.838 446.205 333.837Z" fill="#CCCCCC"/>
<path d="M301.059 283.727H184.251C182.509 283.727 180.839 283.035 179.608 281.803C178.376 280.572 177.685 278.902 177.685 277.16C177.685 275.419 178.376 273.749 179.608 272.518C180.839 271.286 182.509 270.594 184.251 270.594H301.059C302.8 270.594 304.47 271.286 305.702 272.518C306.933 273.749 307.625 275.419 307.625 277.16C307.625 278.902 306.933 280.572 305.702 281.803C304.47 283.035 302.8 283.727 301.059 283.727Z" fill="#CCCCCC"/>
<path d="M365.338 284.072H332.161C330.42 284.072 328.75 283.38 327.518 282.149C326.287 280.918 325.595 279.248 325.595 277.506C325.595 275.765 326.287 274.095 327.518 272.863C328.75 271.632 330.42 270.94 332.161 270.94H365.338C367.079 270.94 368.749 271.632 369.981 272.863C371.212 274.095 371.904 275.765 371.904 277.506C371.904 279.248 371.212 280.918 369.981 282.149C368.749 283.38 367.079 284.072 365.338 284.072V284.072Z" fill="#CCCCCC"/>
<path d="M217.427 333.837H184.251C182.509 333.837 180.839 333.145 179.608 331.913C178.376 330.682 177.685 329.012 177.685 327.27C177.685 325.529 178.376 323.859 179.608 322.628C180.839 321.396 182.509 320.704 184.251 320.704H217.427C218.29 320.703 219.145 320.872 219.942 321.202C220.74 321.531 221.465 322.015 222.075 322.625C222.686 323.234 223.17 323.959 223.501 324.756C223.831 325.553 224.001 326.407 224.001 327.27C224.001 328.133 223.831 328.988 223.501 329.785C223.17 330.582 222.686 331.306 222.075 331.916C221.465 332.526 220.74 333.01 219.942 333.339C219.145 333.669 218.29 333.838 217.427 333.837Z" fill="#CCCCCC"/>
<path d="M92.7017 238.059C90.2228 238.065 87.8421 237.091 86.0781 235.349L42.1694 191.99C41.3074 191.138 40.623 190.125 40.1559 189.007C39.6888 187.889 39.4482 186.689 39.4482 185.478C39.4482 184.267 39.6888 183.067 40.1559 181.949C40.623 180.831 41.3074 179.818 42.1694 178.966L85.9007 135.782C87.7226 133.992 90.177 132.992 92.7313 133C95.2856 133.008 97.7336 134.023 99.5442 135.825C101.356 137.641 102.374 140.102 102.374 142.668C102.374 145.234 101.357 147.695 99.5444 149.512L67.0483 182.008C66.0359 183.023 65.4673 184.398 65.4673 185.832C65.4673 187.265 66.0359 188.64 67.0483 189.655L99.3681 221.975C100.688 223.292 101.587 224.972 101.952 226.8C102.316 228.629 102.129 230.525 101.415 232.247C100.702 233.97 99.4923 235.442 97.941 236.476C96.3898 237.511 94.5663 238.062 92.7017 238.059V238.059Z" fill="#6C63FF"/>
<path d="M538.126 238.059C536.261 238.062 534.437 237.511 532.886 236.476C531.335 235.442 530.126 233.97 529.412 232.247C528.698 230.525 528.511 228.629 528.876 226.8C529.24 224.972 530.139 223.292 531.459 221.975L563.779 189.655C564.791 188.64 565.36 187.265 565.36 185.832C565.36 184.398 564.791 183.023 563.779 182.008L531.283 149.512C530.384 148.613 529.671 147.546 529.185 146.372C528.699 145.198 528.448 143.939 528.448 142.668C528.448 141.397 528.699 140.139 529.185 138.965C529.671 137.791 530.384 136.724 531.283 135.825V135.825C533.094 134.023 535.542 133.008 538.096 133C540.65 132.992 543.105 133.992 544.927 135.782L588.658 178.966C589.52 179.818 590.204 180.832 590.671 181.949C591.138 183.067 591.379 184.267 591.379 185.478C591.379 186.689 591.138 187.889 590.671 189.007C590.204 190.125 589.52 191.138 588.658 191.99L544.749 235.349C542.985 237.09 540.604 238.065 538.126 238.059Z" fill="#6C63FF"/>
<path d="M149.103 177.087H141.134C140.907 175.78 140.488 174.622 139.877 173.614C139.266 172.591 138.506 171.724 137.597 171.014C136.688 170.304 135.651 169.771 134.487 169.416C133.336 169.047 132.093 168.862 130.758 168.862C128.386 168.862 126.283 169.459 124.451 170.652C122.619 171.831 121.184 173.564 120.147 175.851C119.11 178.124 118.592 180.901 118.592 184.182C118.592 187.52 119.11 190.332 120.147 192.619C121.198 194.892 122.633 196.611 124.451 197.776C126.283 198.926 128.379 199.501 130.737 199.501C132.043 199.501 133.265 199.331 134.401 198.99C135.552 198.635 136.582 198.116 137.491 197.435C138.414 196.753 139.188 195.915 139.813 194.92C140.453 193.926 140.893 192.79 141.134 191.511L149.103 191.554C148.805 193.628 148.158 195.574 147.164 197.392C146.184 199.21 144.899 200.815 143.308 202.207C141.717 203.585 139.856 204.665 137.725 205.446C135.595 206.213 133.229 206.597 130.63 206.597C126.795 206.597 123.372 205.709 120.36 203.933C117.349 202.158 114.977 199.594 113.244 196.241C111.511 192.889 110.644 188.869 110.644 184.182C110.644 179.48 111.518 175.46 113.265 172.122C115.012 168.77 117.391 166.206 120.403 164.43C123.414 162.655 126.823 161.767 130.63 161.767C133.059 161.767 135.318 162.108 137.406 162.79C139.494 163.472 141.354 164.473 142.988 165.794C144.622 167.101 145.964 168.706 147.015 170.609C148.08 172.499 148.776 174.658 149.103 177.087ZM195.334 184.182C195.334 188.884 194.453 192.911 192.691 196.263C190.944 199.601 188.558 202.158 185.532 203.933C182.521 205.709 179.105 206.597 175.284 206.597C171.463 206.597 168.04 205.709 165.014 203.933C162.003 202.143 159.616 199.58 157.855 196.241C156.108 192.889 155.234 188.869 155.234 184.182C155.234 179.48 156.108 175.46 157.855 172.122C159.616 168.77 162.003 166.206 165.014 164.43C168.04 162.655 171.463 161.767 175.284 161.767C179.105 161.767 182.521 162.655 185.532 164.43C188.558 166.206 190.944 168.77 192.691 172.122C194.453 175.46 195.334 179.48 195.334 184.182ZM187.386 184.182C187.386 180.872 186.868 178.081 185.831 175.808C184.808 173.521 183.388 171.795 181.569 170.631C179.751 169.452 177.656 168.862 175.284 168.862C172.912 168.862 170.816 169.452 168.998 170.631C167.18 171.795 165.753 173.521 164.716 175.808C163.693 178.081 163.182 180.872 163.182 184.182C163.182 187.491 163.693 190.29 164.716 192.577C165.753 194.849 167.18 196.575 168.998 197.754C170.816 198.919 172.912 199.501 175.284 199.501C177.656 199.501 179.751 198.919 181.569 197.754C183.388 196.575 184.808 194.849 185.831 192.577C186.868 190.29 187.386 187.491 187.386 184.182ZM217.594 206H202.807V162.364H217.892C222.225 162.364 225.946 163.237 229.057 164.984C232.182 166.717 234.582 169.21 236.259 172.463C237.935 175.716 238.773 179.608 238.773 184.139C238.773 188.685 237.928 192.591 236.237 195.858C234.561 199.125 232.139 201.632 228.972 203.379C225.818 205.126 222.026 206 217.594 206ZM210.712 199.161H217.21C220.25 199.161 222.786 198.607 224.817 197.499C226.848 196.376 228.375 194.707 229.398 192.491C230.421 190.261 230.932 187.477 230.932 184.139C230.932 180.801 230.421 178.031 229.398 175.83C228.375 173.614 226.862 171.959 224.859 170.865C222.871 169.757 220.399 169.203 217.445 169.203H210.712V199.161ZM246.283 206V162.364H274.664V168.99H254.188V180.837H273.194V187.463H254.188V199.374H274.835V206H246.283ZM297.612 206V162.364H313.975C317.328 162.364 320.14 162.946 322.413 164.111C324.7 165.276 326.426 166.909 327.59 169.011C328.769 171.099 329.359 173.536 329.359 176.32C329.359 179.118 328.762 181.547 327.569 183.607C326.39 185.652 324.65 187.236 322.349 188.358C320.048 189.466 317.221 190.02 313.869 190.02H302.214V183.457H312.803C314.764 183.457 316.369 183.187 317.619 182.648C318.869 182.094 319.792 181.291 320.389 180.24C320.999 179.175 321.305 177.868 321.305 176.32C321.305 174.771 320.999 173.45 320.389 172.357C319.778 171.249 318.847 170.411 317.597 169.842C316.347 169.26 314.735 168.969 312.761 168.969H305.516V206H297.612ZM320.154 186.227L330.957 206H322.136L311.525 186.227H320.154ZM336.635 206V162.364H365.016V168.99H344.54V180.837H363.546V187.463H344.54V199.374H365.186V206H336.635ZM378.918 162.364L390.275 196.71H390.722L402.058 162.364H410.751L395.367 206H385.609L370.247 162.364H378.918ZM424.403 162.364V206H416.498V162.364H424.403ZM432.963 206V162.364H461.344V168.99H440.868V180.837H459.874V187.463H440.868V199.374H461.514V206H432.963ZM478.592 206L466.276 162.364H474.778L482.64 194.43H483.045L491.44 162.364H499.174L507.59 194.452H507.974L515.836 162.364H524.337L512.022 206H504.224L495.488 175.382H495.147L486.39 206H478.592Z" fill="#6C63FF"/>
</svg>
